<svg xmlns="http://www.w3.org/2000/svg" xmlns:xlink="http://www.w3.org/1999/xlink" width="40" zoomAndPan="magnify" viewBox="0 0 30 30.000001" height="40" preserveAspectRatio="xMidYMid meet" version="1.0"><defs><clipPath id="43cd5d93c4"><path d="M 0.484375 13 L 28.789062 13 L 28.789062 29.03125 L 0.484375 29.03125 Z M 0.484375 13 " clip-rule="nonzero"/></clipPath></defs><g clip-path="url(#43cd5d93c4)"><path fill="#00bf63" d="M 25.917969 13.335938 C 23.3125 13.335938 21.195312 15.453125 21.195312 18.054688 L 21.195312 18.917969 C 20.152344 18.542969 18.128906 18.054688 14.707031 18.054688 C 11.28125 18.054688 9.261719 18.542969 8.214844 18.917969 L 8.214844 18.054688 C 8.214844 15.453125 6.097656 13.335938 3.492188 13.335938 C 1.867188 13.335938 0.542969 14.65625 0.542969 16.285156 C 0.542969 17.480469 1.257812 18.550781 2.359375 19.007812 C 2.691406 19.148438 2.902344 19.46875 2.902344 19.824219 L 3.492188 22.183594 C 3.492188 24.304688 5.097656 26.054688 7.15625 26.289062 C 6.671875 26.519531 6.332031 27.011719 6.332031 27.582031 C 6.332031 28.375 6.976562 29.019531 7.773438 29.019531 C 8.566406 29.019531 9.210938 28.375 9.210938 27.582031 C 9.210938 27.03125 8.898438 26.558594 8.441406 26.316406 L 20.96875 26.316406 C 20.515625 26.558594 20.203125 27.03125 20.203125 27.582031 C 20.203125 28.375 20.84375 29.019531 21.640625 29.019531 C 22.433594 29.019531 23.078125 28.375 23.078125 27.582031 C 23.078125 27.011719 22.742188 26.519531 22.257812 26.289062 C 24.3125 26.054688 25.917969 24.304688 25.917969 22.183594 L 26.507812 19.824219 C 26.507812 19.46875 26.71875 19.148438 27.050781 19.007812 C 28.15625 18.550781 28.867188 17.480469 28.867188 16.285156 C 28.867188 14.65625 27.542969 13.335938 25.917969 13.335938 Z M 25.917969 13.335938 " fill-opacity="1" fill-rule="nonzero"/></g><path fill="#00bf63" d="M 9.835938 16.675781 C 11.066406 16.449219 12.664062 16.285156 14.707031 16.285156 C 16.746094 16.285156 18.34375 16.449219 19.574219 16.675781 C 20.039062 14.539062 21.558594 12.796875 23.558594 12.011719 L 23.558594 8.863281 C 23.558594 3.976562 19.59375 0.0117188 14.707031 0.0117188 C 9.816406 0.0117188 5.855469 3.976562 5.855469 8.863281 L 5.855469 12.011719 C 7.851562 12.796875 9.375 14.539062 9.835938 16.675781 Z M 9.835938 16.675781 " fill-opacity="1" fill-rule="nonzero"/></svg>